<?xml version="1.0" encoding="utf-8"?>
<!-- Generator: Adobe Illustrator 25.3.1, SVG Export Plug-In . SVG Version: 6.00 Build 0)  -->
<svg version="1.1" id="Layer_1" xmlns="http://www.w3.org/2000/svg" xmlns:xlink="http://www.w3.org/1999/xlink" x="0px" y="0px"
	 viewBox="0 0 256 256" enable-background="new 0 0 256 256" xml:space="preserve">
<linearGradient id="SVGID_1_" gradientUnits="userSpaceOnUse" x1="144" y1="32" x2="144" y2="256">
	<stop  offset="0" style="stop-color:#2DB6EE"/>
	<stop  offset="0.5" style="stop-color:#0091F8"/>
	<stop  offset="1" style="stop-color:#0078D4"/>
</linearGradient>
<path fill="url(#SVGID_1_)" d="M256,77v134c0,24.85-20.15,45-45,45H77c-6.67,0-13-1.45-18.7-4.06c-5.4-2.47-10.22-5.97-14.22-10.26
	c-1.21-1.3-2.34-2.66-3.38-4.1C35.23,230.14,32,220.95,32,211V77c0-24.85,20.15-45,45-45h134c9.94,0,19.13,3.22,26.57,8.69
	c1.44,1.04,2.81,2.18,4.11,3.39c4.29,4,7.79,8.82,10.26,14.22C254.55,64,256,70.33,256,77z"/>
<path opacity="0.2" fill="#003E92" d="M246,64v134c0,26.47-21.53,48-48,48H64c-6.93,0-13.72-1.5-19.92-4.32
	c-1.21-1.3-2.34-2.66-3.38-4.1C35.23,230.14,32,220.95,32,211V77c0-24.85,20.15-45,45-45h134c9.94,0,19.13,3.22,26.57,8.69
	c1.44,1.04,2.81,2.18,4.11,3.39C244.5,50.28,246,57.07,246,64z"/>
<path opacity="0.2" fill="#003E92" d="M243,62.5v134c0,25.64-20.86,46.5-46.5,46.5h-134c-7.66,0-15.14-1.88-21.8-5.42
	C35.23,230.14,32,220.95,32,211V77c0-24.85,20.15-45,45-45h134c9.94,0,19.13,3.22,26.57,8.69C241.11,47.35,243,54.83,243,62.5z"/>
<linearGradient id="SVGID_2_" gradientUnits="userSpaceOnUse" x1="128" y1="16" x2="128" y2="240">
	<stop  offset="0" style="stop-color:#4FE3FF"/>
	<stop  offset="0.5" style="stop-color:#3DCCF6"/>
	<stop  offset="1" style="stop-color:#2BB3ED"/>
</linearGradient>
<path fill="url(#SVGID_2_)" d="M240,61v134c0,24.85-20.15,45-45,45H61c-11.34,0-21.71-4.2-29.62-11.12
	c-1.16-1.01-2.26-2.08-3.3-3.21c-1.02-1.08-1.97-2.21-2.87-3.39c-0.19-0.24-0.37-0.49-0.54-0.74C19.21,214.1,16,204.92,16,195V61
	c0-24.85,20.15-45,45-45h134c9.92,0,19.1,3.21,26.54,8.67c0.25,0.17,0.5,0.35,0.74,0.54c1.18,0.9,2.31,1.85,3.39,2.87
	c1.13,1.04,2.2,2.14,3.21,3.3C235.8,39.29,240,49.66,240,61z"/>
<g>
	<path opacity="0.4" fill="#003E92" d="M230,48v134c0,26.47-21.53,48-48,48H48c-7.1,0-13.85-1.55-19.92-4.33
		c-1.02-1.08-1.97-2.21-2.87-3.39c-0.19-0.24-0.37-0.49-0.54-0.74C19.21,214.1,16,204.92,16,195V61c0-24.85,20.15-45,45-45h134
		c9.92,0,19.1,3.21,26.54,8.67c0.25,0.17,0.5,0.35,0.74,0.54c1.18,0.9,2.31,1.85,3.39,2.87C228.45,34.15,230,40.9,230,48z"/>
	<path opacity="0.2" fill="#003E92" d="M227,46.5v134c0,25.64-20.86,46.5-46.5,46.5h-134c-7.89,0-15.32-1.98-21.83-5.46
		C19.21,214.1,16,204.92,16,195V61c0-24.85,20.15-45,45-45h134c9.92,0,19.1,3.21,26.54,8.67C225.02,31.18,227,38.61,227,46.5z"/>
	<path opacity="0.1" fill="#003E92" d="M179,224H45c-24.85,0-45-20.15-45-45V45C0,20.15,20.15,0,45,0h134c24.85,0,45,20.15,45,45
		v134C224,203.85,203.85,224,179,224z"/>
	<linearGradient id="SVGID_3_" gradientUnits="userSpaceOnUse" x1="112" y1="0" x2="112" y2="224">
		<stop  offset="5.327789e-09" style="stop-color:#0078D4"/>
		<stop  offset="0.5" style="stop-color:#0067C0"/>
		<stop  offset="1" style="stop-color:#003E92"/>
	</linearGradient>
	<path fill="url(#SVGID_3_)" d="M179,224H45c-24.85,0-45-20.15-45-45V45C0,20.15,20.15,0,45,0h134c24.85,0,45,20.15,45,45v134
		C224,203.85,203.85,224,179,224z"/>
	<path opacity="0.1" d="M117,190c-13.79,0-25-11.21-25-25c0-0.64,0.03-1.31,0.09-2c-0.06-0.69-0.09-1.36-0.09-2s0.03-1.31,0.09-2
		c-0.06-0.69-0.09-1.36-0.09-2s0.03-1.31,0.09-2c-0.06-0.69-0.09-1.36-0.09-2s0.03-1.31,0.09-2c-0.06-0.69-0.09-1.36-0.09-2
		s0.03-1.31,0.09-2c-0.06-0.69-0.09-1.36-0.09-2s0.03-1.31,0.09-2c-0.06-0.69-0.09-1.36-0.09-2s0.03-1.31,0.09-2
		c-0.06-0.69-0.09-1.36-0.09-2s0.03-1.31,0.09-2c-0.06-0.69-0.09-1.36-0.09-2s0.03-1.31,0.09-2c-0.06-0.69-0.09-1.36-0.09-2
		s0.03-1.31,0.09-2c-0.06-0.69-0.09-1.36-0.09-2s0.03-1.31,0.09-2c-0.06-0.69-0.09-1.36-0.09-2c0-0.63,0.03-1.27,0.08-1.94
		c-0.06-0.67-0.08-1.31-0.08-1.94s0.03-1.27,0.08-1.94c-0.06-0.67-0.08-1.31-0.08-1.94s0.03-1.27,0.08-1.94
		c-0.05-0.55-0.07-1.08-0.08-1.6c-4.1,2.79-8.93,4.28-14,4.28c-13.79,0-25-11.21-25-25c0-8.47,4.34-16.39,11.42-20.98
		c1.01-0.92,2.1-1.76,3.25-2.5c1.01-0.92,2.1-1.75,3.25-2.5c1.01-0.92,2.1-1.75,3.25-2.5c1.01-0.92,2.1-1.75,3.25-2.5
		c1.01-0.92,2.1-1.75,3.25-2.5c1.01-0.92,2.1-1.75,3.25-2.5c1.01-0.92,2.1-1.75,3.25-2.5c1.01-0.92,2.1-1.75,3.25-2.5
		c1.01-0.92,2.1-1.75,3.25-2.5c1.01-0.92,2.1-1.75,3.25-2.5c1.01-0.92,2.09-1.75,3.24-2.49C104.78,36.31,110.7,34,117,34
		c13.79,0,25,11.21,25,25c0,0.63-0.03,1.27-0.08,1.94c0.06,0.67,0.08,1.31,0.08,1.94s-0.03,1.27-0.08,1.94
		c0.06,0.67,0.08,1.31,0.08,1.94s-0.03,1.27-0.08,1.94c0.06,0.67,0.08,1.31,0.08,1.94s-0.03,1.27-0.08,1.94
		c0.06,0.67,0.08,1.31,0.08,1.94s-0.03,1.27-0.08,1.94c0.06,0.67,0.08,1.31,0.08,1.94s-0.03,1.27-0.08,1.94
		c0.06,0.67,0.08,1.31,0.08,1.94s-0.03,1.27-0.08,1.94c0.06,0.67,0.08,1.31,0.08,1.94s-0.03,1.27-0.08,1.94
		c0.06,0.67,0.08,1.31,0.08,1.94s-0.03,1.27-0.08,1.94c0.06,0.67,0.08,1.31,0.08,1.94s-0.03,1.27-0.08,1.94
		c0.06,0.67,0.08,1.31,0.08,1.94s-0.03,1.27-0.08,1.94c0.06,0.67,0.08,1.31,0.08,1.94s-0.03,1.27-0.08,1.94
		c0.06,0.67,0.08,1.31,0.08,1.94s-0.03,1.27-0.08,1.94c0.06,0.67,0.08,1.31,0.08,1.94s-0.03,1.27-0.08,1.94
		c0.06,0.67,0.08,1.31,0.08,1.94s-0.03,1.27-0.08,1.94c0.06,0.67,0.08,1.31,0.08,1.94s-0.03,1.27-0.08,1.94
		c0.06,0.67,0.08,1.31,0.08,1.94c0,0.65-0.03,1.31-0.09,2c0.06,0.69,0.09,1.35,0.09,2s-0.03,1.31-0.09,2c0.06,0.69,0.09,1.35,0.09,2
		s-0.03,1.31-0.09,2c0.06,0.69,0.09,1.35,0.09,2s-0.03,1.31-0.09,2c0.06,0.69,0.09,1.35,0.09,2s-0.03,1.31-0.09,2
		c0.06,0.69,0.09,1.35,0.09,2s-0.03,1.31-0.09,2c0.06,0.69,0.09,1.35,0.09,2s-0.03,1.31-0.09,2c0.06,0.69,0.09,1.35,0.09,2
		s-0.03,1.31-0.09,2c0.06,0.69,0.09,1.35,0.09,2s-0.03,1.31-0.09,2c0.06,0.69,0.09,1.35,0.09,2s-0.03,1.31-0.09,2
		c0.06,0.69,0.09,1.35,0.09,2s-0.03,1.31-0.09,2c0.06,0.69,0.09,1.35,0.09,2C142,178.79,130.79,190,117,190z"/>
	<path opacity="0.08" d="M117,185c-11.03,0-20-8.97-20-20c0-0.64,0.04-1.29,0.11-2c-0.08-0.71-0.11-1.36-0.11-2s0.04-1.29,0.11-2
		c-0.08-0.71-0.11-1.36-0.11-2s0.04-1.29,0.11-2c-0.08-0.71-0.11-1.36-0.11-2s0.04-1.29,0.11-2c-0.08-0.71-0.11-1.36-0.11-2
		s0.04-1.29,0.11-2c-0.08-0.71-0.11-1.36-0.11-2s0.04-1.29,0.11-2c-0.08-0.71-0.11-1.36-0.11-2s0.04-1.29,0.11-2
		c-0.08-0.71-0.11-1.36-0.11-2s0.04-1.29,0.11-2c-0.08-0.71-0.11-1.36-0.11-2s0.04-1.29,0.11-2c-0.08-0.71-0.11-1.36-0.11-2
		s0.04-1.29,0.11-2c-0.08-0.71-0.11-1.36-0.11-2s0.04-1.29,0.11-2c-0.08-0.71-0.11-1.36-0.11-2c0-0.61,0.03-1.25,0.11-1.94
		c-0.07-0.69-0.11-1.33-0.11-1.94s0.03-1.25,0.11-1.94c-0.07-0.69-0.11-1.33-0.11-1.94s0.03-1.25,0.11-1.94
		c-0.07-0.69-0.11-1.33-0.11-1.94s0.03-1.25,0.11-1.94c-0.07-0.69-0.11-1.33-0.11-1.94s0.03-1.25,0.11-1.94
		c-0.07-0.69-0.11-1.33-0.11-1.94s0.03-1.25,0.11-1.94c-0.01-0.05-0.01-0.1-0.02-0.16c-0.66,0.53-1.35,1.02-2.07,1.47
		c-0.99,0.94-2.08,1.77-3.25,2.5c-3.73,3.55-8.6,5.5-13.77,5.5c-11.03,0-20-8.97-20-20c0-6.91,3.62-13.36,9.48-17
		c0.99-0.94,2.08-1.78,3.25-2.5c0.99-0.94,2.08-1.77,3.25-2.5c0.99-0.94,2.08-1.77,3.25-2.5c0.99-0.94,2.08-1.77,3.25-2.5
		c0.99-0.94,2.08-1.77,3.25-2.5c0.99-0.94,2.08-1.77,3.25-2.5c0.99-0.94,2.08-1.77,3.25-2.5c0.99-0.94,2.08-1.77,3.25-2.5
		c0.99-0.94,2.08-1.77,3.25-2.5c0.99-0.94,2.08-1.77,3.25-2.5c0.99-0.94,2.08-1.77,3.25-2.5c3.73-3.55,8.6-5.5,13.77-5.5
		c11.03,0,20,8.97,20,20c0,0.62-0.03,1.25-0.11,1.94c0.07,0.69,0.11,1.32,0.11,1.94s-0.03,1.25-0.11,1.94
		c0.07,0.69,0.11,1.32,0.11,1.94s-0.03,1.25-0.11,1.94c0.07,0.69,0.11,1.32,0.11,1.94s-0.03,1.25-0.11,1.94
		c0.07,0.69,0.11,1.32,0.11,1.94s-0.03,1.25-0.11,1.94c0.07,0.69,0.11,1.32,0.11,1.94s-0.03,1.25-0.11,1.94
		c0.07,0.69,0.11,1.32,0.11,1.94s-0.03,1.25-0.11,1.94c0.07,0.69,0.11,1.32,0.11,1.94s-0.03,1.25-0.11,1.94
		c0.07,0.69,0.11,1.32,0.11,1.94s-0.03,1.25-0.11,1.94c0.07,0.69,0.11,1.32,0.11,1.94s-0.03,1.25-0.11,1.94
		c0.07,0.69,0.11,1.32,0.11,1.94s-0.03,1.25-0.11,1.94c0.07,0.69,0.11,1.32,0.11,1.94s-0.03,1.25-0.11,1.94
		c0.07,0.69,0.11,1.32,0.11,1.94s-0.03,1.25-0.11,1.94c0.07,0.69,0.11,1.32,0.11,1.94s-0.03,1.25-0.11,1.94
		c0.07,0.69,0.11,1.32,0.11,1.94s-0.03,1.25-0.11,1.94c0.07,0.69,0.11,1.32,0.11,1.94s-0.03,1.25-0.11,1.94
		c0.07,0.69,0.11,1.32,0.11,1.94c0,0.64-0.04,1.29-0.11,2c0.08,0.71,0.11,1.36,0.11,2s-0.04,1.29-0.11,2c0.08,0.71,0.11,1.36,0.11,2
		s-0.04,1.29-0.11,2c0.08,0.71,0.11,1.36,0.11,2s-0.04,1.29-0.11,2c0.08,0.71,0.11,1.36,0.11,2s-0.04,1.29-0.11,2
		c0.08,0.71,0.11,1.36,0.11,2s-0.04,1.29-0.11,2c0.08,0.71,0.11,1.36,0.11,2s-0.04,1.29-0.11,2c0.08,0.71,0.11,1.36,0.11,2
		s-0.04,1.29-0.11,2c0.08,0.71,0.11,1.36,0.11,2s-0.04,1.29-0.11,2c0.08,0.71,0.11,1.36,0.11,2s-0.04,1.29-0.11,2
		c0.08,0.71,0.11,1.36,0.11,2s-0.04,1.29-0.11,2c0.08,0.71,0.11,1.36,0.11,2C137,176.03,128.03,185,117,185z"/>
	<g>
		<g>
			<linearGradient id="SVGID_4_" gradientUnits="userSpaceOnUse" x1="102" y1="165" x2="132" y2="165">
				<stop  offset="0" style="stop-color:#4FE3FF"/>
				<stop  offset="0.5" style="stop-color:#3DCCF6"/>
				<stop  offset="1" style="stop-color:#2BB3ED"/>
			</linearGradient>
			<circle fill="url(#SVGID_4_)" cx="117" cy="165" r="15"/>
			<linearGradient id="SVGID_5_" gradientUnits="userSpaceOnUse" x1="102.0094" y1="162.4646" x2="131.9906" y2="163.5354">
				<stop  offset="0" style="stop-color:#4FE3FF"/>
				<stop  offset="0.5" style="stop-color:#3DCCF6"/>
				<stop  offset="1" style="stop-color:#2BB3ED"/>
			</linearGradient>
			<circle fill="url(#SVGID_5_)" cx="117" cy="163" r="15"/>
			<linearGradient id="SVGID_6_" gradientUnits="userSpaceOnUse" x1="102.0376" y1="159.9299" x2="131.9624" y2="162.0701">
				<stop  offset="0" style="stop-color:#4FE3FF"/>
				<stop  offset="0.5" style="stop-color:#3DCCF6"/>
				<stop  offset="1" style="stop-color:#2BB3ED"/>
			</linearGradient>
			<circle fill="url(#SVGID_6_)" cx="117" cy="161" r="15"/>
			<linearGradient id="SVGID_7_" gradientUnits="userSpaceOnUse" x1="102.0847" y1="157.3964" x2="131.9153" y2="160.6036">
				<stop  offset="0" style="stop-color:#4FE3FF"/>
				<stop  offset="0.5" style="stop-color:#3DCCF6"/>
				<stop  offset="1" style="stop-color:#2BB3ED"/>
			</linearGradient>
			<circle fill="url(#SVGID_7_)" cx="117" cy="159" r="15"/>
			<linearGradient id="SVGID_8_" gradientUnits="userSpaceOnUse" x1="102.1508" y1="154.865" x2="131.8492" y2="159.135">
				<stop  offset="0" style="stop-color:#4FE3FF"/>
				<stop  offset="0.5" style="stop-color:#3DCCF6"/>
				<stop  offset="1" style="stop-color:#2BB3ED"/>
			</linearGradient>
			<circle fill="url(#SVGID_8_)" cx="117" cy="157" r="15"/>
			<linearGradient id="SVGID_9_" gradientUnits="userSpaceOnUse" x1="102.2358" y1="152.3362" x2="131.7642" y2="157.6638">
				<stop  offset="0" style="stop-color:#4FE3FF"/>
				<stop  offset="0.5" style="stop-color:#3DCCF6"/>
				<stop  offset="1" style="stop-color:#2BB3ED"/>
			</linearGradient>
			<circle fill="url(#SVGID_9_)" cx="117" cy="155" r="15"/>
			<linearGradient id="SVGID_10_" gradientUnits="userSpaceOnUse" x1="102.3397" y1="149.8109" x2="131.6603" y2="156.1891">
				<stop  offset="0" style="stop-color:#4FE3FF"/>
				<stop  offset="0.5" style="stop-color:#3DCCF6"/>
				<stop  offset="1" style="stop-color:#2BB3ED"/>
			</linearGradient>
			<circle fill="url(#SVGID_10_)" cx="117" cy="153" r="15"/>
			<linearGradient id="SVGID_11_" gradientUnits="userSpaceOnUse" x1="102.4624" y1="147.2895" x2="131.5376" y2="154.7105">
				<stop  offset="0" style="stop-color:#4FE3FF"/>
				<stop  offset="0.5" style="stop-color:#3DCCF6"/>
				<stop  offset="1" style="stop-color:#2BB3ED"/>
			</linearGradient>
			<circle fill="url(#SVGID_11_)" cx="117" cy="151" r="15"/>
			<linearGradient id="SVGID_12_" gradientUnits="userSpaceOnUse" x1="102.6039" y1="144.7729" x2="131.3961" y2="153.2271">
				<stop  offset="0" style="stop-color:#4FE3FF"/>
				<stop  offset="0.5" style="stop-color:#3DCCF6"/>
				<stop  offset="1" style="stop-color:#2BB3ED"/>
			</linearGradient>
			<circle fill="url(#SVGID_12_)" cx="117" cy="149" r="15"/>
			<linearGradient id="SVGID_13_" gradientUnits="userSpaceOnUse" x1="102.7637" y1="142.2617" x2="131.2363" y2="151.7383">
				<stop  offset="0" style="stop-color:#4FE3FF"/>
				<stop  offset="0.5" style="stop-color:#3DCCF6"/>
				<stop  offset="1" style="stop-color:#2BB3ED"/>
			</linearGradient>
			<circle fill="url(#SVGID_13_)" cx="117" cy="147" r="15"/>
			<linearGradient id="SVGID_14_" gradientUnits="userSpaceOnUse" x1="102.9419" y1="139.7566" x2="131.0581" y2="150.2434">
				<stop  offset="0" style="stop-color:#4FE3FF"/>
				<stop  offset="0.5" style="stop-color:#3DCCF6"/>
				<stop  offset="1" style="stop-color:#2BB3ED"/>
			</linearGradient>
			<circle fill="url(#SVGID_14_)" cx="117" cy="145" r="15"/>
			<linearGradient id="SVGID_15_" gradientUnits="userSpaceOnUse" x1="103.1382" y1="137.2582" x2="130.8618" y2="148.7418">
				<stop  offset="0" style="stop-color:#4FE3FF"/>
				<stop  offset="0.5" style="stop-color:#3DCCF6"/>
				<stop  offset="1" style="stop-color:#2BB3ED"/>
			</linearGradient>
			<circle fill="url(#SVGID_15_)" cx="117" cy="143" r="15"/>
			<linearGradient id="SVGID_16_" gradientUnits="userSpaceOnUse" x1="103.3522" y1="134.7673" x2="130.6478" y2="147.2327">
				<stop  offset="0" style="stop-color:#4FE3FF"/>
				<stop  offset="0.5" style="stop-color:#3DCCF6"/>
				<stop  offset="1" style="stop-color:#2BB3ED"/>
			</linearGradient>
			<circle fill="url(#SVGID_16_)" cx="117" cy="141" r="15"/>
			<linearGradient id="SVGID_17_" gradientUnits="userSpaceOnUse" x1="103.5837" y1="132.2843" x2="130.4163" y2="145.7157">
				<stop  offset="0" style="stop-color:#4FE3FF"/>
				<stop  offset="0.5" style="stop-color:#3DCCF6"/>
				<stop  offset="1" style="stop-color:#2BB3ED"/>
			</linearGradient>
			<circle fill="url(#SVGID_17_)" cx="117" cy="139" r="15"/>
			<linearGradient id="SVGID_18_" gradientUnits="userSpaceOnUse" x1="103.8323" y1="129.8099" x2="130.1677" y2="144.1901">
				<stop  offset="0" style="stop-color:#4FE3FF"/>
				<stop  offset="0.5" style="stop-color:#3DCCF6"/>
				<stop  offset="1" style="stop-color:#2BB3ED"/>
			</linearGradient>
			<circle fill="url(#SVGID_18_)" cx="117" cy="137" r="15"/>
			<linearGradient id="SVGID_19_" gradientUnits="userSpaceOnUse" x1="104.0978" y1="127.3448" x2="129.9022" y2="142.6552">
				<stop  offset="0" style="stop-color:#4FE3FF"/>
				<stop  offset="0.5" style="stop-color:#3DCCF6"/>
				<stop  offset="1" style="stop-color:#2BB3ED"/>
			</linearGradient>
			<circle fill="url(#SVGID_19_)" cx="117" cy="135" r="15"/>
			<linearGradient id="SVGID_20_" gradientUnits="userSpaceOnUse" x1="104.3797" y1="124.8894" x2="129.6203" y2="141.1106">
				<stop  offset="0" style="stop-color:#4FE3FF"/>
				<stop  offset="0.5" style="stop-color:#3DCCF6"/>
				<stop  offset="1" style="stop-color:#2BB3ED"/>
			</linearGradient>
			<circle fill="url(#SVGID_20_)" cx="117" cy="133" r="15"/>
			<linearGradient id="SVGID_21_" gradientUnits="userSpaceOnUse" x1="104.6776" y1="122.4444" x2="129.3224" y2="139.5556">
				<stop  offset="0" style="stop-color:#4FE3FF"/>
				<stop  offset="0.5" style="stop-color:#3DCCF6"/>
				<stop  offset="1" style="stop-color:#2BB3ED"/>
			</linearGradient>
			<circle fill="url(#SVGID_21_)" cx="117" cy="131" r="15"/>
			<linearGradient id="SVGID_22_" gradientUnits="userSpaceOnUse" x1="104.9912" y1="120.0103" x2="129.0088" y2="137.9897">
				<stop  offset="0" style="stop-color:#4FE3FF"/>
				<stop  offset="0.5" style="stop-color:#3DCCF6"/>
				<stop  offset="1" style="stop-color:#2BB3ED"/>
			</linearGradient>
			<circle fill="url(#SVGID_22_)" cx="117" cy="129" r="15"/>
			<linearGradient id="SVGID_23_" gradientUnits="userSpaceOnUse" x1="105.32" y1="117.5876" x2="128.68" y2="136.4124">
				<stop  offset="0" style="stop-color:#4FE3FF"/>
				<stop  offset="0.5" style="stop-color:#3DCCF6"/>
				<stop  offset="1" style="stop-color:#2BB3ED"/>
			</linearGradient>
			<circle fill="url(#SVGID_23_)" cx="117" cy="127" r="15"/>
			<linearGradient id="SVGID_24_" gradientUnits="userSpaceOnUse" x1="105.6636" y1="115.1769" x2="128.3364" y2="134.8231">
				<stop  offset="0" style="stop-color:#4FE3FF"/>
				<stop  offset="0.5" style="stop-color:#3DCCF6"/>
				<stop  offset="1" style="stop-color:#2BB3ED"/>
			</linearGradient>
			<circle fill="url(#SVGID_24_)" cx="117" cy="125" r="15"/>
			<linearGradient id="SVGID_25_" gradientUnits="userSpaceOnUse" x1="106.0215" y1="112.7787" x2="127.9785" y2="133.2213">
				<stop  offset="0" style="stop-color:#4FE3FF"/>
				<stop  offset="0.5" style="stop-color:#3DCCF6"/>
				<stop  offset="1" style="stop-color:#2BB3ED"/>
			</linearGradient>
			<circle fill="url(#SVGID_25_)" cx="117" cy="123" r="15"/>
			<linearGradient id="SVGID_26_" gradientUnits="userSpaceOnUse" x1="106.3934" y1="110.3934" x2="127.6066" y2="131.6066">
				<stop  offset="0" style="stop-color:#4FE3FF"/>
				<stop  offset="0.5" style="stop-color:#3DCCF6"/>
				<stop  offset="1" style="stop-color:#2BB3ED"/>
			</linearGradient>
			<circle fill="url(#SVGID_26_)" cx="117" cy="121" r="15"/>
			<linearGradient id="SVGID_27_" gradientUnits="userSpaceOnUse" x1="106.3934" y1="108.3934" x2="127.6066" y2="129.6066">
				<stop  offset="0" style="stop-color:#4EE1FE"/>
				<stop  offset="0.5" style="stop-color:#3CCBF6"/>
				<stop  offset="1" style="stop-color:#2BB3ED"/>
			</linearGradient>
			<circle fill="url(#SVGID_27_)" cx="117" cy="119" r="15"/>
			<linearGradient id="SVGID_28_" gradientUnits="userSpaceOnUse" x1="106.3934" y1="106.3934" x2="127.6066" y2="127.6066">
				<stop  offset="0" style="stop-color:#4DE0FE"/>
				<stop  offset="0.5" style="stop-color:#3CCAF5"/>
				<stop  offset="1" style="stop-color:#2BB3ED"/>
			</linearGradient>
			<circle fill="url(#SVGID_28_)" cx="117" cy="117" r="15"/>
			<linearGradient id="SVGID_29_" gradientUnits="userSpaceOnUse" x1="106.3934" y1="104.3934" x2="127.6066" y2="125.6066">
				<stop  offset="0" style="stop-color:#4CDEFD"/>
				<stop  offset="0.5" style="stop-color:#3BCAF5"/>
				<stop  offset="1" style="stop-color:#2BB3ED"/>
			</linearGradient>
			<circle fill="url(#SVGID_29_)" cx="117" cy="115" r="15"/>
			<linearGradient id="SVGID_30_" gradientUnits="userSpaceOnUse" x1="106.3934" y1="102.3934" x2="127.6066" y2="123.6066">
				<stop  offset="0" style="stop-color:#4ADDFD"/>
				<stop  offset="0.5" style="stop-color:#3BC9F5"/>
				<stop  offset="1" style="stop-color:#2BB3ED"/>
			</linearGradient>
			<circle fill="url(#SVGID_30_)" cx="117" cy="113" r="15"/>
			<linearGradient id="SVGID_31_" gradientUnits="userSpaceOnUse" x1="106.3934" y1="100.3934" x2="127.6066" y2="121.6066">
				<stop  offset="0" style="stop-color:#49DBFC"/>
				<stop  offset="0.5" style="stop-color:#3AC8F5"/>
				<stop  offset="1" style="stop-color:#2BB3ED"/>
			</linearGradient>
			<circle fill="url(#SVGID_31_)" cx="117" cy="111" r="15"/>
			<linearGradient id="SVGID_32_" gradientUnits="userSpaceOnUse" x1="106.3934" y1="98.3934" x2="127.6066" y2="119.6066">
				<stop  offset="0" style="stop-color:#48DAFC"/>
				<stop  offset="0.5" style="stop-color:#3AC7F4"/>
				<stop  offset="1" style="stop-color:#2BB3ED"/>
			</linearGradient>
			<circle fill="url(#SVGID_32_)" cx="117" cy="109" r="15"/>
			<linearGradient id="SVGID_33_" gradientUnits="userSpaceOnUse" x1="106.3934" y1="96.3934" x2="127.6066" y2="117.6066">
				<stop  offset="0" style="stop-color:#47D8FB"/>
				<stop  offset="0.5" style="stop-color:#39C6F4"/>
				<stop  offset="1" style="stop-color:#2BB3ED"/>
			</linearGradient>
			<circle fill="url(#SVGID_33_)" cx="117" cy="107" r="15"/>
			<linearGradient id="SVGID_34_" gradientUnits="userSpaceOnUse" x1="106.3934" y1="94.3934" x2="127.6066" y2="115.6066">
				<stop  offset="0" style="stop-color:#46D7FA"/>
				<stop  offset="0.5" style="stop-color:#38C6F4"/>
				<stop  offset="1" style="stop-color:#2BB3ED"/>
			</linearGradient>
			<circle fill="url(#SVGID_34_)" cx="117" cy="105" r="15"/>
			<linearGradient id="SVGID_35_" gradientUnits="userSpaceOnUse" x1="106.3934" y1="92.3934" x2="127.6066" y2="113.6066">
				<stop  offset="0" style="stop-color:#45D5FA"/>
				<stop  offset="0.5" style="stop-color:#38C5F3"/>
				<stop  offset="1" style="stop-color:#2BB3ED"/>
			</linearGradient>
			<circle fill="url(#SVGID_35_)" cx="117" cy="103" r="15"/>
			<linearGradient id="SVGID_36_" gradientUnits="userSpaceOnUse" x1="106.3934" y1="90.3934" x2="127.6066" y2="111.6066">
				<stop  offset="0" style="stop-color:#43D4F9"/>
				<stop  offset="0.5" style="stop-color:#37C4F3"/>
				<stop  offset="1" style="stop-color:#2BB3ED"/>
			</linearGradient>
			<circle fill="url(#SVGID_36_)" cx="117" cy="101" r="15"/>
			<linearGradient id="SVGID_37_" gradientUnits="userSpaceOnUse" x1="106.3934" y1="88.3934" x2="127.6066" y2="109.6066">
				<stop  offset="0" style="stop-color:#42D2F9"/>
				<stop  offset="0.5" style="stop-color:#37C3F3"/>
				<stop  offset="1" style="stop-color:#2BB3ED"/>
			</linearGradient>
			<circle fill="url(#SVGID_37_)" cx="117" cy="99" r="15"/>
			<linearGradient id="SVGID_38_" gradientUnits="userSpaceOnUse" x1="106.3934" y1="86.3934" x2="127.6066" y2="107.6066">
				<stop  offset="0" style="stop-color:#41D0F8"/>
				<stop  offset="0.5" style="stop-color:#36C2F3"/>
				<stop  offset="1" style="stop-color:#2BB3ED"/>
			</linearGradient>
			<circle fill="url(#SVGID_38_)" cx="117" cy="97" r="15"/>
			<linearGradient id="SVGID_39_" gradientUnits="userSpaceOnUse" x1="106.3934" y1="84.3934" x2="127.6066" y2="105.6066">
				<stop  offset="0" style="stop-color:#40CFF7"/>
				<stop  offset="0.5" style="stop-color:#35C2F2"/>
				<stop  offset="1" style="stop-color:#2BB3ED"/>
			</linearGradient>
			<circle fill="url(#SVGID_39_)" cx="117" cy="95" r="15"/>
			<linearGradient id="SVGID_40_" gradientUnits="userSpaceOnUse" x1="106.3934" y1="82.3934" x2="127.6066" y2="103.6066">
				<stop  offset="0" style="stop-color:#3FCDF7"/>
				<stop  offset="0.5" style="stop-color:#35C1F2"/>
				<stop  offset="1" style="stop-color:#2BB3ED"/>
			</linearGradient>
			<circle fill="url(#SVGID_40_)" cx="117" cy="93" r="15"/>
			<linearGradient id="SVGID_41_" gradientUnits="userSpaceOnUse" x1="106.3934" y1="80.3934" x2="127.6066" y2="101.6066">
				<stop  offset="0" style="stop-color:#3ECCF6"/>
				<stop  offset="0.5" style="stop-color:#34C0F2"/>
				<stop  offset="1" style="stop-color:#2BB3ED"/>
			</linearGradient>
			<circle fill="url(#SVGID_41_)" cx="117" cy="91" r="15"/>
			<linearGradient id="SVGID_42_" gradientUnits="userSpaceOnUse" x1="106.3934" y1="78.3934" x2="127.6066" y2="99.6066">
				<stop  offset="0" style="stop-color:#3CCAF6"/>
				<stop  offset="0.5" style="stop-color:#34BFF1"/>
				<stop  offset="1" style="stop-color:#2BB3ED"/>
			</linearGradient>
			<circle fill="url(#SVGID_42_)" cx="117" cy="89" r="15"/>
			<linearGradient id="SVGID_43_" gradientUnits="userSpaceOnUse" x1="106.3934" y1="76.3934" x2="127.6066" y2="97.6066">
				<stop  offset="0" style="stop-color:#3BC9F5"/>
				<stop  offset="0.5" style="stop-color:#33BEF1"/>
				<stop  offset="1" style="stop-color:#2BB3ED"/>
			</linearGradient>
			<circle fill="url(#SVGID_43_)" cx="117" cy="87" r="15"/>
			<linearGradient id="SVGID_44_" gradientUnits="userSpaceOnUse" x1="106.3934" y1="74.3934" x2="127.6066" y2="95.6066">
				<stop  offset="0" style="stop-color:#3AC7F5"/>
				<stop  offset="0.5" style="stop-color:#33BDF1"/>
				<stop  offset="1" style="stop-color:#2BB3ED"/>
			</linearGradient>
			<circle fill="url(#SVGID_44_)" cx="117" cy="85" r="15"/>
			<linearGradient id="SVGID_45_" gradientUnits="userSpaceOnUse" x1="106.3934" y1="72.3934" x2="127.6066" y2="93.6066">
				<stop  offset="0" style="stop-color:#39C6F4"/>
				<stop  offset="0.5" style="stop-color:#32BDF0"/>
				<stop  offset="1" style="stop-color:#2BB3ED"/>
			</linearGradient>
			<circle fill="url(#SVGID_45_)" cx="117" cy="83" r="15"/>
			<linearGradient id="SVGID_46_" gradientUnits="userSpaceOnUse" x1="106.3934" y1="70.3934" x2="127.6066" y2="91.6066">
				<stop  offset="0" style="stop-color:#38C4F3"/>
				<stop  offset="0.5" style="stop-color:#31BCF0"/>
				<stop  offset="1" style="stop-color:#2BB3ED"/>
			</linearGradient>
			<circle fill="url(#SVGID_46_)" cx="117" cy="81" r="15"/>
			<linearGradient id="SVGID_47_" gradientUnits="userSpaceOnUse" x1="106.3934" y1="68.3934" x2="127.6066" y2="89.6066">
				<stop  offset="0" style="stop-color:#37C2F3"/>
				<stop  offset="0.5" style="stop-color:#31BBF0"/>
				<stop  offset="1" style="stop-color:#2BB3ED"/>
			</linearGradient>
			<circle fill="url(#SVGID_47_)" cx="117" cy="79" r="15"/>
			<linearGradient id="SVGID_48_" gradientUnits="userSpaceOnUse" x1="106.3934" y1="66.3934" x2="127.6066" y2="87.6066">
				<stop  offset="0" style="stop-color:#35C1F2"/>
				<stop  offset="0.5" style="stop-color:#30BAF0"/>
				<stop  offset="1" style="stop-color:#2BB3ED"/>
			</linearGradient>
			<circle fill="url(#SVGID_48_)" cx="117" cy="77" r="15"/>
			<linearGradient id="SVGID_49_" gradientUnits="userSpaceOnUse" x1="106.3934" y1="64.3934" x2="127.6066" y2="85.6066">
				<stop  offset="0" style="stop-color:#34BFF2"/>
				<stop  offset="0.5" style="stop-color:#30B9EF"/>
				<stop  offset="1" style="stop-color:#2BB3ED"/>
			</linearGradient>
			<circle fill="url(#SVGID_49_)" cx="117" cy="75" r="15"/>
			<linearGradient id="SVGID_50_" gradientUnits="userSpaceOnUse" x1="106.3934" y1="62.3934" x2="127.6066" y2="83.6066">
				<stop  offset="0" style="stop-color:#33BEF1"/>
				<stop  offset="0.5" style="stop-color:#2FB9EF"/>
				<stop  offset="1" style="stop-color:#2BB3ED"/>
			</linearGradient>
			<circle fill="url(#SVGID_50_)" cx="117" cy="73" r="15"/>
			<linearGradient id="SVGID_51_" gradientUnits="userSpaceOnUse" x1="106.3934" y1="60.3934" x2="127.6066" y2="81.6066">
				<stop  offset="0" style="stop-color:#32BCF0"/>
				<stop  offset="0.5" style="stop-color:#2EB8EF"/>
				<stop  offset="1" style="stop-color:#2BB3ED"/>
			</linearGradient>
			<circle fill="url(#SVGID_51_)" cx="117" cy="71" r="15"/>
			<linearGradient id="SVGID_52_" gradientUnits="userSpaceOnUse" x1="106.3934" y1="58.3934" x2="127.6066" y2="79.6066">
				<stop  offset="0" style="stop-color:#31BBF0"/>
				<stop  offset="0.5" style="stop-color:#2EB7EE"/>
				<stop  offset="1" style="stop-color:#2BB3ED"/>
			</linearGradient>
			<circle fill="url(#SVGID_52_)" cx="117" cy="69" r="15"/>
			<linearGradient id="SVGID_53_" gradientUnits="userSpaceOnUse" x1="106.3934" y1="56.3934" x2="127.6066" y2="77.6066">
				<stop  offset="0" style="stop-color:#30B9EF"/>
				<stop  offset="0.5" style="stop-color:#2DB6EE"/>
				<stop  offset="1" style="stop-color:#2BB3ED"/>
			</linearGradient>
			<circle fill="url(#SVGID_53_)" cx="117" cy="67" r="15"/>
			<linearGradient id="SVGID_54_" gradientUnits="userSpaceOnUse" x1="106.3934" y1="54.3934" x2="127.6066" y2="75.6066">
				<stop  offset="0" style="stop-color:#2EB8EF"/>
				<stop  offset="0.5" style="stop-color:#2DB5EE"/>
				<stop  offset="1" style="stop-color:#2BB3ED"/>
			</linearGradient>
			<circle fill="url(#SVGID_54_)" cx="117" cy="65" r="15"/>
			<linearGradient id="SVGID_55_" gradientUnits="userSpaceOnUse" x1="106.3934" y1="52.3934" x2="127.6066" y2="73.6066">
				<stop  offset="0" style="stop-color:#2DB6EE"/>
				<stop  offset="0.5" style="stop-color:#2CB5EE"/>
				<stop  offset="1" style="stop-color:#2BB3ED"/>
			</linearGradient>
			<circle fill="url(#SVGID_55_)" cx="117" cy="63" r="15"/>
			<linearGradient id="SVGID_56_" gradientUnits="userSpaceOnUse" x1="106.3934" y1="50.3934" x2="127.6066" y2="71.6066">
				<stop  offset="0" style="stop-color:#2CB5EE"/>
				<stop  offset="0.5" style="stop-color:#2CB4ED"/>
				<stop  offset="1" style="stop-color:#2BB3ED"/>
			</linearGradient>
			<circle fill="url(#SVGID_56_)" cx="117" cy="61" r="15"/>
			<circle fill="#2BB3ED" cx="117" cy="59" r="15"/>
		</g>
		<linearGradient id="SVGID_57_" gradientUnits="userSpaceOnUse" x1="84.6508" y1="61.1507" x2="110.3493" y2="86.8493">
			<stop  offset="0" style="stop-color:#4FE3FF"/>
			<stop  offset="0.5" style="stop-color:#3DCCF6"/>
			<stop  offset="1" style="stop-color:#2BB3ED"/>
		</linearGradient>
		<path fill="url(#SVGID_57_)" d="M132,59c0-8.28-6.72-15-15-15c-4.19,0-7.97,1.72-10.69,4.49c-1.2,0.69-2.29,1.52-3.25,2.5
			c-1.2,0.69-2.29,1.52-3.25,2.5c-1.2,0.69-2.29,1.52-3.25,2.5c-1.2,0.69-2.29,1.52-3.25,2.5c-1.2,0.69-2.29,1.52-3.25,2.5
			c-1.2,0.69-2.29,1.52-3.25,2.5c-1.2,0.69-2.29,1.52-3.25,2.5c-1.2,0.69-2.29,1.52-3.25,2.5c-1.2,0.69-2.29,1.52-3.25,2.5
			c-1.2,0.69-2.29,1.52-3.25,2.5c-1.2,0.69-2.29,1.52-3.25,2.5C66.05,78.57,63,83.43,63,89c0,8.28,6.72,15,15,15
			c4.19,0,7.97-1.72,10.69-4.49c1.2-0.69,2.29-1.52,3.25-2.5c1.2-0.69,2.29-1.52,3.25-2.5c1.2-0.69,2.29-1.52,3.25-2.5
			c1.2-0.69,2.29-1.52,3.25-2.5c1.2-0.69,2.29-1.52,3.25-2.5c1.2-0.69,2.29-1.52,3.25-2.5c1.2-0.69,2.29-1.52,3.25-2.5
			c1.2-0.69,2.29-1.52,3.25-2.5c1.2-0.69,2.29-1.52,3.25-2.5c1.2-0.69,2.29-1.52,3.25-2.5c1.2-0.69,2.29-1.52,3.25-2.5
			C128.95,69.43,132,64.57,132,59z"/>
	</g>
</g>
<g>
	<circle opacity="0.1" cx="174" cy="49" r="24"/>
	<circle opacity="0.08" cx="174" cy="49" r="22"/>
	<linearGradient id="SVGID_58_" gradientUnits="userSpaceOnUse" x1="159.8579" y1="34.8579" x2="188.1421" y2="63.1421">
		<stop  offset="0" style="stop-color:#FEFCFF"/>
		<stop  offset="0.5" style="stop-color:#E7EAF1"/>
		<stop  offset="1" style="stop-color:#D6E0DF"/>
	</linearGradient>
	<circle fill="url(#SVGID_58_)" cx="174" cy="49" r="20"/>
</g>
</svg>
