<?xml version="1.0" encoding="utf-8"?>
<!-- Generator: Adobe Illustrator 25.3.1, SVG Export Plug-In . SVG Version: 6.00 Build 0)  -->
<svg version="1.1" id="Layer_1" xmlns="http://www.w3.org/2000/svg" xmlns:xlink="http://www.w3.org/1999/xlink" x="0px" y="0px"
	 viewBox="0 0 256 256" enable-background="new 0 0 256 256" xml:space="preserve">
<path opacity="0.1" d="M31.76,243c-12,0-21.76-9.96-21.76-22.2v-87.13c-4.72-2.01-8-6.76-8-12.25V80.06C2,64.56,14.56,52,30.06,52
	H65v-6.75C65,26.89,79.89,12,98.25,12h58.5C175.11,12,190,26.89,190,45.25V52h35.94C241.44,52,254,64.56,254,80.06v41.35
	c0,5.49-3.28,10.24-8,12.25v87.13c0,12.24-9.76,22.2-21.76,22.2H31.76z M154,52v-3h-53v3H154z"/>
<path opacity="0.08" d="M32.19,239C22.71,239,15,231.11,15,221.42v-90.94c-4.45-0.24-8-4.02-8-8.62V80.39C7,67.47,17.47,57,30.39,57
	H69V45.58C69,29.8,81.8,17,97.58,17h58.83C172.2,17,185,29.8,185,45.58V57h40.61C238.53,57,249,67.47,249,80.39v41.48
	c0,4.6-3.55,8.38-8,8.62v90.94c0,9.69-7.71,17.58-17.19,17.58H32.19z M158,57V45.75c0-0.97-0.78-1.75-1.75-1.75h-58.5
	C96.78,44,96,44.78,96,45.75V57H158z"/>
<path fill="#4CC2FF" d="M237,126v95.09c0,7.1-5.81,12.91-12.91,12.91H32.88c-7.1,0-12.88-5.77-12.88-12.85V126H237z"/>
<rect x="20" y="122" fill="#2BA6FF" width="217" height="14"/>
<path fill="#36AFFF" d="M89,136v8.53c0,4.11-3.36,7.47-7.47,7.47H52.47c-4.13,0-7.47-3.34-7.47-7.47V136H89z"/>
<path fill="#1C8FFF" d="M89,105.46V136H45v-30.53c0-4.13,3.34-7.47,7.47-7.47h29.07C85.66,98,89,101.34,89,105.46z"/>
<path fill="#36AFFF" d="M212,136v8.53c0,4.13-3.34,7.47-7.47,7.47h-29.06c-4.13,0-7.47-3.34-7.47-7.47V136H212z"/>
<path fill="#1C8FFF" d="M212,105.47V136h-44v-30.53c0-4.13,3.34-7.47,7.47-7.47h29.06C208.66,98,212,101.34,212,105.47z"/>
<path fill="#0091F8" d="M156.08,22H97.92C84.71,22,74,32.71,74,45.92V61h18V45.42c0-3.54,2.87-6.42,6.42-6.42h58.17
	c3.54,0,6.42,2.87,6.42,6.42V61h17V45.92C180,32.71,169.29,22,156.08,22z"/>
<path fill="#E6E6E6" d="M245,80.72v41.31c0,2.19-1.78,3.97-3.97,3.97H15.97c-2.19,0-3.97-1.78-3.97-3.97V80.72
	C12,70.38,20.38,62,30.72,62h195.55C236.62,62,245,70.38,245,80.72z"/>
<path fill="#0091F8" d="M204.03,101h-29.07c-2.19,0-3.97,1.78-3.97,3.97v39.07c0,2.19,1.78,3.97,3.97,3.97h29.07
	c2.19,0,3.97-1.78,3.97-3.97v-39.07C208,102.78,206.22,101,204.03,101z"/>
<path fill="#0091F8" d="M82.03,101H52.97c-2.19,0-3.97,1.78-3.97,3.97v39.07c0,2.19,1.78,3.97,3.97,3.97h29.08
	c2.18,0,3.96-1.77,3.96-3.96v-39.08C86,102.78,84.22,101,82.03,101z"/>
</svg>
